<svg width="16" height="16" viewBox="0 0 16 16" fill="none" xmlns="http://www.w3.org/2000/svg">
<path d="M7.26634 12.5C7.26634 13.325 6.60634 14 5.79967 14C4.99301 14 4.33301 13.325 4.33301 12.5C4.33301 11.675 4.99301 11 5.79967 11C6.60634 11 7.26634 11.675 7.26634 12.5ZM5.79967 6.5C4.99301 6.5 4.33301 7.175 4.33301 8C4.33301 8.825 4.99301 9.5 5.79967 9.5C6.60634 9.5 7.26634 8.825 7.26634 8C7.26634 7.175 6.60634 6.5 5.79967 6.5ZM5.79967 2C4.99301 2 4.33301 2.675 4.33301 3.5C4.33301 4.325 4.99301 5 5.79967 5C6.60634 5 7.26634 4.325 7.26634 3.5C7.26634 2.675 6.60634 2 5.79967 2ZM10.1997 5C11.0063 5 11.6663 4.325 11.6663 3.5C11.6663 2.675 11.0063 2 10.1997 2C9.39301 2 8.73301 2.675 8.73301 3.5C8.73301 4.325 9.39301 5 10.1997 5ZM10.1997 6.5C9.39301 6.5 8.73301 7.175 8.73301 8C8.73301 8.825 9.39301 9.5 10.1997 9.5C11.0063 9.5 11.6663 8.825 11.6663 8C11.6663 7.175 11.0063 6.5 10.1997 6.5ZM10.1997 11C9.39301 11 8.73301 11.675 8.73301 12.5C8.73301 13.325 9.39301 14 10.1997 14C11.0063 14 11.6663 13.325 11.6663 12.5C11.6663 11.675 11.0063 11 10.1997 11Z" fill="currentColor"/>
</svg>
