<svg width="20" height="20" viewBox="0 0 20 20" fill="none" xmlns="http://www.w3.org/2000/svg">
<path d="M13.3332 6.66669C14.6593 6.66669 15.931 7.19347 16.8687 8.13115C17.8064 9.06883 18.3332 10.3406 18.3332 11.6667V17.5H14.9998V11.6667C14.9998 11.2247 14.8242 10.8007 14.5117 10.4882C14.1991 10.1756 13.7752 10 13.3332 10C12.8911 10 12.4672 10.1756 12.1547 10.4882C11.8421 10.8007 11.6665 11.2247 11.6665 11.6667V17.5H8.33317V11.6667C8.33317 10.3406 8.85996 9.06883 9.79764 8.13115C10.7353 7.19347 12.0071 6.66669 13.3332 6.66669Z" stroke="currentColor" stroke-width="2" stroke-linecap="round" stroke-linejoin="round"/>
<path d="M4.99984 7.50002H1.6665V17.5H4.99984V7.50002Z" stroke="currentColor" stroke-width="2" stroke-linecap="round" stroke-linejoin="round"/>
<path d="M3.33317 5.00002C4.25365 5.00002 4.99984 4.25383 4.99984 3.33335C4.99984 2.41288 4.25365 1.66669 3.33317 1.66669C2.4127 1.66669 1.6665 2.41288 1.6665 3.33335C1.6665 4.25383 2.4127 5.00002 3.33317 5.00002Z" stroke="currentColor" stroke-width="2" stroke-linecap="round" stroke-linejoin="round"/>
</svg>
