<svg width="20" height="20" viewBox="0 0 20 20" fill="none" xmlns="http://www.w3.org/2000/svg">
<g clip-path="url(#clip0_11726_747)">
<path d="M19.1667 3.33343V8.33343M19.1667 8.33343H14.1667M19.1667 8.33343L15.3084 4.70009C14.1589 3.54988 12.6667 2.80441 11.0567 2.57605C9.44667 2.34768 7.80604 2.64877 6.38202 3.43396C4.95801 4.21915 3.82777 5.44588 3.16161 6.92932C2.49546 8.41275 2.32949 10.0725 2.6887 11.6585C3.04792 13.2444 3.91286 14.6707 5.15319 15.7223C6.39352 16.7739 7.94205 17.3939 9.56541 17.4889C11.1888 17.5839 12.799 17.1487 14.1535 16.2488C15.508 15.349 16.5334 14.0334 17.0751 12.5001" stroke="currentColor" stroke-width="2" stroke-linecap="round" stroke-linejoin="round"/>
</g>
<defs>
<clipPath id="clip0_11726_747">
<rect width="20" height="20" fill="white"/>
</clipPath>
</defs>
</svg>
