<svg width="8" height="8" viewBox="0 0 8 8" fill="none" xmlns="http://www.w3.org/2000/svg">
<path d="M3.42976 1.28673L0.606429 6.00007C0.548219 6.10088 0.517418 6.21517 0.517092 6.33157C0.516767 6.44798 0.546926 6.56245 0.604572 6.66358C0.662217 6.76471 0.745338 6.84898 0.845665 6.90802C0.945993 6.96705 1.06003 6.99879 1.17643 7.00007L6.8231 7.00007C6.9395 6.99879 7.05353 6.96705 7.15386 6.90802C7.25419 6.84898 7.33731 6.76471 7.39495 6.66358C7.4526 6.56245 7.48276 6.44798 7.48243 6.33157C7.48211 6.21517 7.45131 6.10088 7.3931 6.00007L4.56976 1.28673C4.51034 1.18877 4.42667 1.10777 4.32683 1.05156C4.22699 0.995351 4.11434 0.96582 3.99976 0.96582C3.88518 0.96582 3.77254 0.995351 3.6727 1.05156C3.57286 1.10777 3.48919 1.18877 3.42976 1.28673Z" fill="currentColor"/>
</svg>
