<svg width="20" height="20" viewBox="0 0 20 20" fill="none" xmlns="http://www.w3.org/2000/svg">
<g clip-path="url(#clip0_12619_4213)">
<path d="M19.1668 2.50002C18.3688 3.06292 17.4853 3.49344 16.5502 3.77502C16.0483 3.19794 15.3813 2.78893 14.6394 2.60329C13.8974 2.41765 13.1164 2.46435 12.4019 2.73706C11.6874 3.00978 11.0739 3.49535 10.6443 4.12812C10.2148 4.76088 9.98991 5.5103 10.0002 6.27502V7.10835C8.53569 7.14632 7.08456 6.82153 5.776 6.16289C4.46745 5.50425 3.34209 4.53221 2.50016 3.33335C2.50016 3.33335 -0.83317 10.8334 6.66683 14.1667C4.9506 15.3317 2.90613 15.9158 0.833496 15.8334C8.3335 20 17.5002 15.8334 17.5002 6.25002C17.4994 6.0179 17.4771 5.78635 17.4335 5.55835C18.284 4.7196 18.8842 3.66061 19.1668 2.50002Z" stroke="currentColor" stroke-width="2" stroke-linecap="round" stroke-linejoin="round"/>
</g>
<defs>
<clipPath id="clip0_12619_4213">
<rect width="20" height="20" fill="none"/>
</clipPath>
</defs>
</svg>
